HIERARCHY
ROOT Hips
{
	OFFSET 0.00000 0.00000 0.00000
	CHANNELS 6 Xposition Yposition Zposition Zrotation Yrotation Xrotation 
	JOINT LHipJoint
	{
		OFFSET 0 0 0
		CHANNELS 3 Zrotation Yrotation Xrotation
		JOINT LeftUpLeg
		{
			OFFSET 1.28858 -1.83292 1.03970
			CHANNELS 3 Zrotation Yrotation Xrotation
			JOINT LeftLeg
			{
				OFFSET 2.47846 -6.80952 0.00000
				CHANNELS 3 Zrotation Yrotation Xrotation
				JOINT LeftFoot
				{
					OFFSET 2.75274 -7.56311 0.00000
					CHANNELS 3 Zrotation Yrotation Xrotation
					JOINT LeftToeBase
					{
						OFFSET 0.12848 -0.35301 1.68223
						CHANNELS 3 Zrotation Yrotation Xrotation
						End Site
						{
							OFFSET 0.00000 -0.00000 0.87311
						}
					}
				}
			}
		}
	}
	JOINT RHipJoint
	{
		OFFSET 0 0 0
		CHANNELS 3 Zrotation Yrotation Xrotation
		JOINT RightUpLeg
		{
			OFFSET -1.31183 -1.83292 1.03970
			CHANNELS 3 Zrotation Yrotation Xrotation
			JOINT RightLeg
			{
				OFFSET -2.44740 -6.72417 0.00000
				CHANNELS 3 Zrotation Yrotation Xrotation
				JOINT RightFoot
				{
					OFFSET -2.67343 -7.34519 0.00000
					CHANNELS 3 Zrotation Yrotation Xrotation
					JOINT RightToeBase
					{
						OFFSET -0.16914 -0.46471 1.77626
						CHANNELS 3 Zrotation Yrotation Xrotation
						End Site
						{
							OFFSET -0.00000 -0.00000 0.92777
						}
					}
				}
			}
		}
	}
	JOINT LowerBack
	{
		OFFSET 0 0 0
		CHANNELS 3 Zrotation Yrotation Xrotation
		JOINT Spine
		{
			OFFSET 0.01249 2.14252 0.03842
			CHANNELS 3 Zrotation Yrotation Xrotation
			JOINT Spine1
			{
				OFFSET -0.02957 2.14199 -0.03751
				CHANNELS 3 Zrotation Yrotation Xrotation
				JOINT Neck
				{
					OFFSET 0 0 0
					CHANNELS 3 Zrotation Yrotation Xrotation
					JOINT Neck1
					{
						OFFSET -0.01678 1.65709 -0.05476
						CHANNELS 3 Zrotation Yrotation Xrotation
						JOINT Head
						{
							OFFSET 0.07912 1.58331 -0.11843
							CHANNELS 3 Zrotation Yrotation Xrotation
							End Site
							{
								OFFSET 0.03298 1.73940 -0.04271
							}
						}
					}
				}
				JOINT LeftShoulder
				{
					OFFSET 0 0 0
					CHANNELS 3 Zrotation Yrotation Xrotation
					JOINT LeftArm
					{
						OFFSET 3.39556 1.16496 0.08673
						CHANNELS 3 Zrotation Yrotation Xrotation
						JOINT LeftForeArm
						{
							OFFSET 5.23910 -0.00000 -0.00000
							CHANNELS 3 Zrotation Yrotation Xrotation
							JOINT LeftHand
							{
								OFFSET 3.31467 -0.00000 0.00000
								CHANNELS 3 Zrotation Yrotation Xrotation
								JOINT LeftFingerBase
								{
									OFFSET 0 0 0
									CHANNELS 3 Zrotation Yrotation Xrotation
									JOINT LeftHandIndex1
									{
										OFFSET 0.96590 -0.00000 0.00000
										CHANNELS 3 Zrotation Yrotation Xrotation
										End Site
										{
											OFFSET 0.77873 -0.00000 0.00000
										}
									}
								}
								JOINT LThumb
								{
									OFFSET 0 0 0
									CHANNELS 3 Zrotation Yrotation Xrotation
									End Site
									{
										OFFSET 0.79062 -0.00000 0.79062
									}
								}
							}
						}
					}
				}
				JOINT RightShoulder
				{
					OFFSET 0 0 0
					CHANNELS 3 Zrotation Yrotation Xrotation
					JOINT RightArm
					{
						OFFSET -3.27193 1.31331 0.33940
						CHANNELS 3 Zrotation Yrotation Xrotation
						JOINT RightForeArm
						{
							OFFSET -5.30252 -0.00000 0.00000
							CHANNELS 3 Zrotation Yrotation Xrotation
							JOINT RightHand
							{
								OFFSET -3.67875 -0.00000 0.00000
								CHANNELS 3 Zrotation Yrotation Xrotation
								JOINT RightFingerBase
								{
									OFFSET 0 0 0
									CHANNELS 3 Zrotation Yrotation Xrotation
									JOINT RightHandIndex1
									{
										OFFSET -0.59481 -0.00000 0.00000
										CHANNELS 3 Zrotation Yrotation Xrotation
										End Site
										{
											OFFSET -0.47955 -0.00000 0.00000
										}
									}
								}
								JOINT RThumb
								{
									OFFSET 0 0 0
									CHANNELS 3 Zrotation Yrotation Xrotation
									End Site
									{
										OFFSET -0.48687 -0.00000 0.48687
									}
								}
							}
						}
					}
				}
			}
		}
	}
}
MOTION
Frames: 16
Frame Time: .0083333
5.6783 28.0684 -7.4934 -0.9304 9.9893 9.5783 0.0000 0.0000 0.0000 -12.3370 -12.2181 -22.7824 3.5794 11.5787 34.2573 -0.8525 -16.7025 1.4122 2.4017 9.6569 27.8726 0.0000 0.0000 0.0000 24.2010 1.8130 -20.3120 -1.4786 -7.6832 21.7560 -0.3226 -7.3088 -15.8178 -0.2185 3.0094 -8.3049 1.9084 -0.1992 5.6714 0.6703 -0.1719 3.8154 -0.3733 -0.0554 0.7422 -2.8787 -1.6835 -5.0850 2.7953 -2.4231 18.6968 1.2040 -1.1294 6.5834 0.0000 0.0000 0.0000 -74.3774 -9.2537 53.2954 20.9671 -31.7900 -6.0326 -0.0000 0.0000 -4.3733 4.2476 -13.5995 -1.0005 -7.1250 0.0000 -0.0000 -15.7872 16.6517 11.0318 0.0000 0.0000 0.0000 84.5279 -6.8144 23.3447 -15.7786 25.2196 -3.5511 0.0000 0.0000 5.0702 -0.3657 -20.0234 0.1252 7.1250 -0.0000 -0.0000 26.8223 -48.0297 -2.1507
5.7078 28.0894 -7.4114 -1.0365 9.9627 9.5278 0.0000 0.0000 0.0000 -12.6876 -11.8632 -22.3653 3.6496 11.6789 34.6053 -0.8801 -16.9133 1.6181 2.4837 9.8082 28.3579 0.0000 0.0000 0.0000 24.1309 1.7361 -20.1952 -1.4258 -7.5507 21.3575 -0.2447 -7.6441 -15.0884 -0.2289 3.0794 -8.4999 2.0537 -0.2470 5.5171 0.7664 -0.2326 3.7517 -0.3535 -0.0845 0.7611 -2.7325 -1.6836 -4.9836 2.6861 -2.4220 18.5735 1.1452 -1.1290 6.5231 0.0000 0.0000 0.0000 -74.4706 -9.0106 53.3025 21.0632 -31.9020 -6.0833 -0.0000 0.0000 -4.3687 3.4182 -13.5146 -0.7997 -7.1250 0.0000 -0.0000 -16.3474 16.7646 11.4154 0.0000 0.0000 0.0000 84.3114 -7.1393 23.4811 -16.1044 25.6620 -3.6911 0.0000 0.0000 4.0349 -0.8651 -19.8763 0.2941 7.1250 -0.0000 -0.0000 26.3057 -47.9674 -2.0605
5.7374 28.1107 -7.3279 -1.1346 9.9062 9.4635 0.0000 0.0000 0.0000 -13.0443 -11.5489 -21.7804 3.6519 11.6822 34.6169 -0.9028 -17.0572 1.8931 2.6275 10.0660 29.1909 0.0000 0.0000 0.0000 24.0220 1.6634 -20.0499 -1.3713 -7.4110 20.9389 -0.1649 -8.0031 -14.3059 -0.2441 3.1794 -8.7785 2.1552 -0.2918 5.3701 0.8710 -0.2915 3.6992 -0.3008 -0.1135 0.7877 -2.6003 -1.6798 -4.9613 2.6049 -2.4180 18.4852 1.0975 -1.1253 6.4884 -0.0000 -0.0000 0.0000 -74.5831 -8.7753 53.2995 21.1611 -32.0159 -6.1351 -0.0000 0.0000 -4.3802 2.7672 -13.4973 -0.6463 -7.1250 0.0000 -0.0000 -16.7825 16.8037 11.7325 -0.0000 -0.0000 0.0000 84.0828 -7.4885 23.6043 -16.4790 26.1659 -3.8548 0.0000 0.0000 3.0209 -1.3301 -19.7125 0.4487 7.1250 -0.0000 -0.0000 25.8119 -47.8847 -1.9607
5.7664 28.1311 -7.2429 -1.2229 9.8181 9.3855 0.0000 0.0000 0.0000 -13.4036 -11.2709 -21.0342 3.5844 11.5858 34.2819 -0.9198 -17.1567 2.1421 2.8128 10.3857 30.2349 0.0000 0.0000 0.0000 23.8731 1.6025 -19.8728 -1.3142 -7.2613 20.4918 -0.0821 -8.4049 -13.4625 -0.2563 3.2571 -8.9954 2.2191 -0.3303 5.2338 0.9764 -0.3439 3.6590 -0.2266 -0.1397 0.8213 -2.5008 -1.6587 -5.0521 2.5151 -2.3843 18.4775 1.0538 -1.1090 6.4987 -0.0000 0.0000 0.0000 -74.7029 -8.5244 53.2706 21.2849 -32.1594 -6.2009 -0.0000 0.0000 -4.3797 2.3038 -13.5353 -0.5395 -7.1250 0.0000 -0.0000 -17.0875 16.7825 11.9748 -0.0000 0.0000 0.0000 83.8545 -7.8543 23.6870 -16.8949 26.7190 -4.0400 0.0000 0.0000 2.0954 -1.7320 -19.5255 0.5790 7.1250 -0.0000 -0.0000 25.3638 -47.7714 -1.8471
5.7949 28.1491 -7.1574 -1.2881 9.6826 9.3213 0.0000 0.0000 0.0000 -13.7746 -11.0222 -20.1783 3.4486 11.3881 33.6001 -0.9307 -17.2451 2.1938 2.9712 10.6483 31.1026 0.0000 0.0000 0.0000 23.6708 1.5635 -19.7155 -1.2599 -7.1153 20.0574 0.0022 -8.8399 -12.5569 -0.2659 3.3173 -9.1634 2.2456 -0.3572 5.0976 1.0676 -0.3827 3.6246 -0.1468 -0.1596 0.8614 -2.5104 -1.5894 -5.4021 2.3935 -2.2646 18.6796 1.0227 -1.0588 6.6204 0.0000 -0.0000 0.0000 -74.8091 -8.2594 53.2176 21.4457 -32.3449 -6.2867 -0.0000 0.0000 -4.3725 2.0022 -13.5928 -0.4707 -7.1250 0.0000 -0.0000 -17.2829 16.7369 12.1435 0.0000 -0.0000 0.0000 83.6333 -8.1963 23.7301 -17.3197 27.2772 -4.2328 0.0000 0.0000 1.2953 -2.0325 -19.3298 0.6730 7.1250 -0.0000 -0.0000 25.0028 -47.6355 -1.7289
5.8231 28.1634 -7.0725 -1.3275 9.4905 9.2913 0.0000 0.0000 0.0000 -14.1566 -10.7985 -19.2631 3.2493 11.0881 32.5776 -0.9358 -17.3534 1.9369 3.0502 10.7759 31.5279 0.0000 0.0000 0.0000 23.4132 1.5469 -19.6243 -1.2133 -6.9875 19.6785 0.0836 -9.2739 -11.6041 -0.2723 3.3564 -9.2725 2.2411 -0.3688 4.9412 1.1358 -0.4029 3.5837 -0.0743 -0.1705 0.9064 -2.6237 -1.4721 -5.8528 2.2590 -2.0612 18.9374 1.0108 -0.9765 6.7773 0.0000 -0.0000 0.0000 -74.8909 -7.9550 53.1377 21.6520 -32.5815 -6.3974 -0.0000 0.0000 -4.3576 1.8404 -13.6407 -0.4342 -7.1250 0.0000 -0.0000 -17.3860 16.6961 12.2397 0.0000 -0.0000 0.0000 83.4270 -8.5038 23.7326 -17.7220 27.7997 -4.4188 0.0000 0.0000 0.6532 -2.2250 -19.1065 0.7286 7.1250 -0.0000 -0.0000 24.7263 -47.4591 -1.5937
5.8509 28.1739 -6.9889 -1.3509 9.2500 9.2876 0.0000 0.0000 0.0000 -14.5342 -10.5890 -18.3138 2.9955 10.6878 31.2341 -0.9340 -17.4880 1.3632 3.0215 10.7298 31.3738 0.0000 0.0000 0.0000 23.1113 1.5568 -19.5965 -1.1752 -6.8806 19.3622 0.1578 -9.6808 -10.6356 -0.2735 3.3637 -9.2931 2.2101 -0.3699 4.7680 1.1844 -0.4107 3.5378 -0.0076 -0.1755 0.9560 -2.8057 -1.3191 -6.4080 2.0943 -1.7891 19.2463 1.0066 -0.8690 6.9686 -0.0000 -0.0000 0.0000 -74.9607 -7.6007 52.9952 21.8987 -32.8624 -6.5308 -0.0000 0.0000 -4.3288 1.8178 -13.6686 -0.4297 -7.1250 0.0000 -0.0000 -17.3986 16.6703 12.2598 -0.0000 -0.0000 0.0000 83.2342 -8.7446 23.7064 -18.0732 28.2508 -4.5838 0.0000 0.0000 0.1744 -2.3395 -18.8205 0.7551 7.1250 -0.0000 -0.0000 24.4919 -47.2148 -1.4208
5.8784 28.1811 -6.9072 -1.3683 8.9732 9.2930 0.0000 0.0000 0.0000 -14.8901 -10.3981 -17.3422 2.7036 10.1991 29.6237 -0.9236 -17.6088 0.6432 2.9750 10.6545 31.1234 0.0000 0.0000 0.0000 22.7745 1.6044 -19.6080 -1.1446 -6.7937 19.1056 0.2208 -10.0326 -9.6906 -0.2714 3.3509 -9.2572 2.1587 -0.3663 4.6031 1.2202 -0.4124 3.4856 0.0570 -0.1778 0.9946 -2.9818 -1.1641 -6.9645 1.9319 -1.5105 19.5677 1.0040 -0.7596 7.1651 0.0000 0.0000 0.0000 -75.0303 -7.2048 52.7893 22.1649 -33.1629 -6.6758 -0.0000 0.0000 -4.3132 1.9323 -13.6941 -0.4576 -7.1250 0.0000 -0.0000 -17.3207 16.6423 12.2105 0.0000 0.0000 0.0000 83.0490 -8.9136 23.6737 -18.3635 28.6201 -4.7221 0.0000 -0.0000 -0.1860 -2.4118 -18.4966 0.7656 7.1250 -0.0000 -0.0000 24.2798 -46.9297 -1.2266
5.9055 28.1853 -6.8279 -1.3751 8.6790 9.2999 0.0000 0.0000 0.0000 -15.2309 -10.2516 -16.3786 2.3999 9.6536 27.8621 -0.9082 -17.6792 0.0186 3.0378 10.7560 31.4612 0.0000 0.0000 0.0000 22.3928 1.6993 -19.6441 -1.1212 -6.7261 18.9064 0.2696 -10.3040 -8.8206 -0.2685 3.3332 -9.2077 2.0809 -0.3628 4.4593 1.2484 -0.4142 3.4309 0.1288 -0.1807 1.0190 -3.0992 -1.0189 -7.4816 1.7898 -1.2545 19.8601 0.9977 -0.6569 7.3464 0.0000 0.0000 0.0000 -75.1071 -6.7968 52.5396 22.4326 -33.4625 -6.8229 -0.0000 0.0000 -4.3363 2.1904 -13.7456 -0.5207 -7.1250 0.0000 -0.0000 -17.1455 16.5849 12.0972 0.0000 0.0000 0.0000 82.8679 -9.0338 23.6444 -18.6144 28.9368 -4.8429 0.0000 -0.0000 -0.4753 -2.4433 -18.2119 0.7640 7.1250 -0.0000 -0.0000 24.1241 -46.6744 -1.0572
5.9324 28.1865 -6.7518 -1.3522 8.3882 9.3068 0.0000 0.0000 0.0000 -15.5901 -10.1702 -15.4735 2.1139 9.0994 26.1068 -0.8917 -17.6959 -0.4386 3.2016 11.0144 32.3285 0.0000 0.0000 0.0000 21.9384 1.8477 -19.7013 -1.1045 -6.6776 18.7636 0.3029 -10.4704 -8.0563 -0.2766 3.3828 -9.3463 1.9656 -0.3650 4.3504 1.2645 -0.4236 3.3807 0.2096 -0.1879 1.0285 -3.0414 -0.8953 -7.8792 1.5852 -1.0431 20.0399 0.9387 -0.5695 7.4700 0.0000 -0.0000 0.0000 -75.1866 -6.4235 52.2636 22.6843 -33.7417 -6.9621 -0.0000 0.0000 -4.4105 2.6274 -13.8736 -0.6304 -7.1250 0.0000 -0.0000 -16.8457 16.4480 11.9180 0.0000 -0.0000 0.0000 82.6972 -9.1099 23.6180 -18.8509 29.2330 -4.9578 0.0000 -0.0000 -0.7374 -2.4444 -18.0350 0.7572 7.1250 -0.0000 -0.0000 24.0446 -46.5132 -0.9522
5.9592 28.1847 -6.6796 -1.3013 8.1051 9.3187 0.0000 0.0000 0.0000 -15.9787 -10.1772 -14.6817 1.8694 8.5885 24.5164 -0.8726 -17.6582 -0.7977 3.4154 11.3389 33.4317 0.0000 0.0000 0.0000 21.4075 2.0661 -19.7862 -1.0945 -6.6481 18.6770 0.3208 -10.5136 -7.3973 -0.3053 3.5525 -9.8209 1.8272 -0.3744 4.2896 1.2632 -0.4413 3.3222 0.2862 -0.1997 1.0028 -2.8659 -0.7805 -8.1873 1.3732 -0.8633 20.1546 0.8553 -0.4898 7.5571 -0.0000 0.0000 0.0000 -75.2576 -6.0754 51.9741 22.9213 -34.0026 -7.0942 -0.0000 0.0000 -4.5219 3.2434 -14.1031 -0.7911 -7.1250 0.0000 -0.0000 -16.4200 16.2059 11.6799 -0.0000 0.0000 0.0000 82.5438 -9.1634 23.6012 -19.0896 29.5299 -5.0749 0.0000 -0.0000 -1.0184 -2.4409 -17.9934 0.7544 7.1250 -0.0000 -0.0000 24.0292 -46.4748 -0.9274
5.9856 28.1801 -6.6115 -1.2343 7.8365 9.3437 0.0000 0.0000 0.0000 -16.3876 -10.2805 -14.0632 1.6811 8.1677 23.2245 -0.8424 -17.5573 -1.2453 3.5553 11.5439 34.1371 0.0000 0.0000 0.0000 20.8152 2.3672 -19.9121 -1.0907 -6.6372 18.6448 0.3259 -10.4407 -6.8307 -0.3645 3.8781 -10.7340 1.6810 -0.3917 4.2718 1.2467 -0.4681 3.2523 0.3520 -0.2162 0.9414 -2.6003 -0.6743 -8.3609 1.1681 -0.7154 20.1660 0.7563 -0.4184 7.5869 0.0000 -0.0000 0.0000 -75.3149 -5.7410 51.6697 23.1612 -34.2646 -7.2288 -0.0000 0.0000 -4.6553 3.8447 -14.3053 -0.9513 -7.1250 0.0000 -0.0000 -16.0070 15.9878 11.4397 0.0000 -0.0000 0.0000 82.4120 -9.2019 23.5888 -19.3427 29.8423 -5.2003 0.0000 -0.0000 -1.3198 -2.4140 -18.0998 0.7504 7.1250 -0.0000 -0.0000 24.1000 -46.5683 -0.9893
6.0112 28.1729 -6.5476 -1.1499 7.5966 9.3852 0.0000 0.0000 0.0000 -16.8188 -10.4585 -13.6575 1.5517 7.8621 22.2961 -0.7882 -17.3585 -1.9685 3.4705 11.4203 33.7108 0.0000 0.0000 0.0000 20.1700 2.7321 -20.0931 -1.0950 -6.6498 18.6821 0.3187 -10.2352 -6.3335 -0.4755 4.4222 -12.2675 1.5330 -0.4175 4.2912 1.2135 -0.5054 3.1765 0.4025 -0.2377 0.8531 -2.3417 -0.5743 -8.5841 0.9902 -0.5801 20.2015 0.6664 -0.3512 7.6347 -0.0000 0.0000 0.0000 -75.3536 -5.4358 51.3602 23.4129 -34.5372 -7.3710 -0.0000 0.0000 -4.8299 4.4944 -14.5179 -1.1288 -7.1250 0.0000 -0.0000 -15.5622 15.7553 11.1773 -0.0000 0.0000 0.0000 82.3083 -9.2200 23.5679 -19.6126 30.1728 -5.3353 0.0000 -0.0000 -1.6335 -2.3474 -18.3476 0.7393 7.1250 -0.0000 -0.0000 24.2696 -46.7856 -1.1348
6.0361 28.1638 -6.4879 -1.0518 7.3928 9.4450 0.0000 0.0000 0.0000 -17.2619 -10.6874 -13.4785 1.4744 7.6727 21.7241 -0.7046 -17.0070 -2.9355 3.1681 10.9624 32.1530 0.0000 0.0000 0.0000 19.4888 3.1313 -20.3432 -1.1105 -6.6952 18.8155 0.2985 -9.8607 -5.8834 -0.6509 5.1608 -14.3677 1.3909 -0.4526 4.3386 1.1673 -0.5541 3.0951 0.4370 -0.2647 0.7435 -2.0984 -0.4792 -8.8081 0.8379 -0.4552 20.2265 0.5867 -0.2878 7.6801 -0.0000 -0.0000 0.0000 -75.3781 -5.1592 51.0613 23.6755 -34.8192 -7.5205 -0.0000 0.0000 -5.0683 5.1316 -14.6775 -1.3035 -7.1250 0.0000 -0.0000 -15.1297 15.5720 10.9050 -0.0000 -0.0000 0.0000 82.2307 -9.2134 23.5319 -19.8875 30.5066 -5.4741 0.0000 -0.0000 -1.9574 -2.2627 -18.6698 0.7247 7.1250 -0.0000 -0.0000 24.4908 -47.0676 -1.3267
6.0595 28.1542 -6.4320 -0.9401 7.2320 9.5094 0.0000 0.0000 0.0000 -17.6990 -10.9270 -13.5184 1.4403 7.5874 21.4678 -0.6012 -16.4798 -3.9275 2.7658 10.3060 29.9734 0.0000 0.0000 0.0000 18.7912 3.5372 -20.6524 -1.1394 -6.7786 19.0612 0.2664 -9.3060 -5.4712 -0.8845 5.9952 -16.7706 1.2413 -0.4997 4.4089 1.1176 -0.6191 3.0228 0.4732 -0.2995 0.6307 -1.8642 -0.3887 -9.0742 0.6924 -0.3364 20.2777 0.5103 -0.2276 7.7425 -0.0000 -0.0000 0.0000 -75.4040 -4.9195 50.7646 23.9407 -35.1015 -7.6724 -0.0000 0.0000 -5.3739 5.7640 -14.7683 -1.4740 -7.1250 0.0000 -0.0000 -14.7046 15.4534 10.6153 -0.0000 -0.0000 0.0000 82.1750 -9.1508 23.4668 -20.1421 30.8132 -5.6040 0.0000 -0.0000 -2.2649 -2.2025 -18.9777 0.7166 7.1250 -0.0000 -0.0000 24.6862 -47.3393 -1.5137
6.0805 28.1455 -6.3795 -0.8146 7.1114 9.5591 0.0000 0.0000 0.0000 -18.1048 -11.1444 -13.7530 1.4422 7.5921 21.4818 -0.4999 -15.8196 -4.6868 2.4267 9.7034 28.0216 0.0000 0.0000 0.0000 18.0998 3.9318 -21.0003 -1.1850 -6.9085 19.4445 0.2245 -8.5678 -5.1109 -1.1485 6.8049 -19.1385 1.0686 -0.5565 4.5086 1.0708 -0.6979 2.9712 0.5263 -0.3414 0.5233 -1.6601 -0.2976 -9.2917 0.5649 -0.2172 20.2990 0.4451 -0.1679 7.7868 0.0000 0.0000 0.0000 -75.4401 -4.7192 50.4579 24.2018 -35.3769 -7.8231 -0.0000 0.0000 -5.7208 6.4006 -14.8169 -1.6432 -7.1250 0.0000 -0.0000 -14.2786 15.3735 10.3122 0.0000 0.0000 0.0000 82.1370 -9.0096 23.3679 -20.3439 31.0544 -5.7077 0.0000 -0.0000 -2.5409 -2.2172 -19.1949 0.7293 7.1250 -0.0000 -0.0000 24.7747 -47.5382 -1.6483
